<svg xmlns="http://www.w3.org/2000/svg" height="184.58" width="134.247"><path d="M119.576 70.372a7059.229 7059.229 0 001.427-29.441L12.459 38.963c.039 3.909.155 15.11.359 29.47 8.943 2.067 27.661 5.58 53.287 6.044s44.453-2.362 53.471-4.105zM64.169 181.262c32.145.581 46-3.9 48.09-7.905.324-.655 1.247-4.671 2.9-27.468a156.966 156.966 0 01-100.677-1.826c.834 22.845 1.611 26.891 1.912 27.559 1.954 4.081 15.636 9.056 47.775 9.64zM122.614 38.006l3.642.066a4.439 4.439 0 004.509-4.349l.083-4.6a4.434 4.434 0 00-4.348-4.51L7.99 22.466a4.447 4.447 0 00-4.508 4.347l-.082 4.6a4.444 4.444 0 004.347 4.509l114.866 2.083zM119.676 5.154l-104.6-1.9c-1.336 0-4.145 6.991-5.96 16.273l115.933 2.1c-1.473-9.33-4.014-16.412-5.373-16.473z" fill="#fff"/><path d="M120.143 140.924l4.17-68.525c-6.34 1.433-27.537 5.587-58.262 5.031S14.294 71.954 8.01 70.291l1.683 68.632c4.254 1.945 25.3 10.855 55.036 11.393s51.102-7.601 55.414-9.392z" fill="#caa575"/><path d="M14.776 151.215c17.685 6.08 57 15.868 99.818 2.194.18-2.249.371-4.739.573-7.518a156.966 156.966 0 01-100.677-1.826c.093 2.632.186 4.99.286 7.15zM12.514 44.382l108.229 2.1c.116-2.459.2-4.355.259-5.556L12.458 38.958c.012 1.183.03 3.034.056 5.424z" fill="#ecedee"/><g fill="none" stroke="#3e4147" stroke-linecap="round" stroke-linejoin="round" stroke-width="3.565" transform="translate(-5952.924 -1853.085)"><path d="M5964.28 1922.7a6664.662 6664.662 0 01-.388-32.157M6069.721 1996.874c-1.162 16.339-2.308 28.491-3.229 30.252-3.162 6.047-22.4 9.186-49.425 8.7s-46.137-4.324-49.078-10.482c-.856-1.793-1.562-13.979-2.131-30.351M6075.47 1892.566s-.615 13.582-1.553 32.123"/><rect height="16.415" rx="3" transform="rotate(1.038 -100459.264 329635.477)" width="130.341"/><path d="M6079.69 1876.225s-2.7-19.383-7.06-19.462l-52.3-.947-52.3-.948c-4.359-.079-7.76 19.193-7.76 19.193M6017.627 2004.877c34 .616 56.859-9.87 56.859-9.87l4.346-71.424s-22.75 6.128-59.83 5.456-59.594-7.62-59.594-7.62l1.756 71.535s22.467 11.307 56.463 11.923z"/></g></svg>
